# Blender v2.93.5 OBJ File: 'Scene export.blend'
# www.blender.org
mtllib table.mtl
o Table_Cube.001
v -3.425619 3.261708 1.708966
v -3.425619 3.418849 1.708966
v -3.425619 3.261708 -1.708966
v -3.425619 3.418849 -1.708966
v 3.425619 3.261708 1.708966
v 3.425619 3.418849 1.708966
v 3.425619 3.261708 -1.708966
v 3.425619 3.418849 -1.708966
v -3.425619 3.261708 -1.591849
v -3.425619 3.261708 -1.292140
v -3.425619 3.261708 1.292140
v -3.425619 3.261708 1.591849
v -3.425619 3.418849 1.591849
v -3.425619 3.418849 1.292140
v -3.425619 3.418849 -1.292140
v -3.425619 3.418849 -1.591849
v 3.425619 3.261708 1.591849
v 3.425619 3.261708 1.292140
v 3.425619 3.261708 -1.292140
v 3.425619 3.261708 -1.591849
v 3.425619 3.418849 -1.591849
v 3.425619 3.418849 -1.292140
v 3.425619 3.418849 1.292140
v 3.425619 3.418849 1.591849
v 3.311208 3.261708 -1.708966
v 3.025293 3.261708 -1.708966
v -3.025293 3.261708 -1.708966
v -3.311208 3.261708 -1.708966
v -3.311208 3.418849 -1.708966
v -3.025293 3.418849 -1.708966
v 3.025293 3.418849 -1.708966
v 3.311208 3.418849 -1.708966
v -3.311208 3.261708 1.708966
v -3.025293 3.261708 1.708966
v 3.025293 3.261708 1.708966
v 3.311208 3.261708 1.708966
v 3.311208 3.418849 1.708966
v 3.025293 3.418849 1.708966
v -3.025293 3.418849 1.708966
v -3.311208 3.418849 1.708966
v -3.311208 3.418849 -1.591849
v -3.025293 3.418849 -1.591849
v 3.025293 3.418849 -1.591849
v 3.311208 3.418849 -1.591849
v -3.311208 3.418849 -1.292140
v -3.025293 3.418849 -1.292140
v 3.025293 3.418849 -1.292140
v 3.311208 3.418849 -1.292140
v -3.311208 3.418849 1.292140
v -3.025293 3.418849 1.292140
v 3.025293 3.418849 1.292140
v 3.311208 3.418849 1.292140
v -3.311208 3.418849 1.591849
v -3.025293 3.418849 1.591849
v 3.025293 3.418849 1.591849
v 3.311208 3.418849 1.591849
v 3.311208 3.261708 -1.591849
v 3.025293 3.261708 -1.591849
v -3.025293 3.261708 -1.591849
v -3.311208 3.261708 -1.591849
v 3.311208 3.261708 -1.292140
v 3.025293 3.261708 -1.292140
v -3.025293 3.261708 -1.292140
v -3.311208 3.261708 -1.292140
v 3.311208 3.261708 1.292140
v 3.025293 3.261708 1.292140
v -3.025293 3.261708 1.292140
v -3.311208 3.261708 1.292140
v 3.311208 3.261708 1.591849
v 3.025293 3.261708 1.591849
v -3.025293 3.261708 1.591849
v -3.311208 3.261708 1.591849
v 3.311208 -0.000001 -1.591849
v 3.025293 -0.000001 -1.591849
v -3.025293 -0.000001 -1.591849
v -3.311208 -0.000001 -1.591849
v 3.311208 -0.000001 -1.292140
v 3.025293 -0.000001 -1.292140
v -3.025293 -0.000001 -1.292140
v -3.311208 -0.000001 -1.292140
v 3.311208 -0.000001 1.292140
v 3.025293 -0.000001 1.292140
v -3.025293 -0.000001 1.292140
v -3.311208 -0.000001 1.292140
v 3.311208 -0.000001 1.591849
v 3.025293 -0.000001 1.591849
v -3.025293 -0.000001 1.591849
v -3.311208 -0.000001 1.591849
vt 0.758054 0.688585
vt 0.749893 0.677636
vt 0.758054 0.677636
vt 0.280466 0.688585
vt 0.272493 0.677636
vt 0.280466 0.677636
vt 0.042490 0.688585
vt 0.034329 0.677636
vt 0.042490 0.677636
vt 0.741921 0.428522
vt 0.749893 0.439472
vt 0.741921 0.439472
vt 0.272493 0.447633
vt 0.280466 0.439472
vt 0.280466 0.447633
vt 0.749893 0.918588
vt 0.741921 0.926749
vt 0.741921 0.918588
vt 0.749893 0.688585
vt 0.741921 0.696746
vt 0.741921 0.688585
vt 0.749893 0.696746
vt 0.741921 0.717630
vt 0.749893 0.717630
vt 0.741921 0.897704
vt 0.749893 0.897704
vt 0.280466 0.669475
vt 0.272493 0.669475
vt 0.280466 0.648591
vt 0.272493 0.648591
vt 0.280466 0.468517
vt 0.272493 0.468517
vt 0.272493 0.688585
vt 0.264333 0.677636
vt 0.264333 0.688585
vt 0.243449 0.677636
vt 0.243449 0.688585
vt 0.063374 0.677636
vt 0.063374 0.688585
vt 0.988057 0.688585
vt 0.979896 0.677636
vt 0.988057 0.677636
vt 0.979896 0.688585
vt 0.959012 0.677636
vt 0.959012 0.688585
vt 0.778938 0.677636
vt 0.778938 0.688585
vt 0.741921 0.468517
vt 0.749893 0.447633
vt 0.749893 0.468517
vt 0.521883 0.041878
vt 0.749157 0.062761
vt 0.521883 0.062761
vt 0.300388 0.468517
vt 0.721998 0.447633
vt 0.721998 0.468517
vt 0.521883 0.225986
vt 0.749157 0.245908
vt 0.521883 0.245908
vt 0.741921 0.648591
vt 0.749893 0.648591
vt 0.721998 0.648591
vt 0.300388 0.648591
vt 0.741921 0.669475
vt 0.749893 0.669475
vt 0.749157 0.082684
vt 0.521883 0.082684
vt 0.300388 0.669475
vt 0.721998 0.669475
vt 0.521883 0.165257
vt 0.749157 0.185179
vt 0.521883 0.185179
vt 0.741921 0.677636
vt 0.721998 0.677636
vt 0.300388 0.677636
vt 0.280466 0.897704
vt 0.272493 0.918588
vt 0.272493 0.897704
vt 0.300388 0.897704
vt 0.280466 0.918588
vt 0.721998 0.897704
vt 0.300388 0.918588
vt 0.721998 0.918588
vt 0.280466 0.717630
vt 0.272493 0.717630
vt 0.300388 0.717630
vt 0.721998 0.717630
vt 0.280466 0.696746
vt 0.272493 0.696746
vt 0.300388 0.696746
vt 0.721998 0.696746
vt 0.300388 0.688585
vt 0.721998 0.688585
vt 0.272493 0.926749
vt 0.280466 0.926749
vt 0.300388 0.926749
vt 0.721998 0.926749
vt 0.741921 0.447633
vt 0.300388 0.447633
vt 0.721998 0.439472
vt 0.300388 0.439472
vt 0.272493 0.428522
vt 0.272493 0.439472
vt 0.280466 0.428522
vt 0.300388 0.428522
vt 0.721998 0.428522
vt 0.770041 0.082684
vt 0.770041 0.062761
vt 0.770041 0.307598
vt 0.749157 0.287675
vt 0.770041 0.287675
vt 0.749157 0.124451
vt 0.770041 0.144373
vt 0.749157 0.144373
vt 0.749157 0.225986
vt 0.770041 0.245908
vt 0.521883 0.328481
vt 0.749157 0.348404
vt 0.521883 0.348404
vt 0.521883 0.144373
vt 0.749157 0.165257
vt 0.749157 0.103567
vt 0.521883 0.103567
vt 0.521883 0.103567
vt 0.521883 0.124451
vt 0.521883 0.266792
vt 0.521883 0.287675
vt 0.521883 0.021955
vt 0.749157 0.041878
vt 0.749157 0.266791
vt 0.521883 0.266792
vt 0.521883 0.307598
vt 0.749157 0.328481
vt 0.521883 0.205102
vt 0.521883 0.185179
vt 0.749157 0.205102
vt 0.749157 0.307598
vt 0.034329 0.688585
vt 0.749893 0.428522
vt 0.749893 0.926749
vt 0.770041 0.124451
vt 0.770041 0.225986
vt 0.749157 0.103567
vt 0.749157 0.266792
vt 0.749157 0.021955
vt 0.749157 0.185180
vn -1.0000 0.0000 0.0000
vn 0.0000 0.0000 -1.0000
vn 1.0000 0.0000 0.0000
vn 0.0000 0.0000 1.0000
vn 0.0000 -1.0000 0.0000
vn 0.0000 1.0000 0.0000
usemtl Material.001
s off
f 16/1/1 3/2/1 9/3/1
f 32/4/2 7/5/2 25/6/2
f 24/7/3 5/8/3 17/9/3
f 40/10/4 1/11/4 33/12/4
f 17/13/5 36/14/5 69/15/5
f 13/16/6 40/17/6 53/18/6
f 4/19/6 41/20/6 29/21/6
f 16/22/6 45/23/6 41/20/6
f 15/24/6 49/25/6 45/23/6
f 14/26/6 53/18/6 49/25/6
f 7/5/5 57/27/5 25/6/5
f 20/28/5 61/29/5 57/27/5
f 19/30/5 65/31/5 61/29/5
f 18/32/5 69/15/5 65/31/5
f 8/33/3 20/34/3 7/5/3
f 21/35/3 19/36/3 20/34/3
f 22/37/3 18/38/3 19/36/3
f 23/39/3 17/9/3 18/38/3
f 2/40/1 12/41/1 1/42/1
f 13/43/1 11/44/1 12/41/1
f 14/45/1 10/46/1 11/44/1
f 15/47/1 9/3/1 10/46/1
f 68/48/5 12/49/5 11/50/5
f 68/51/1 88/52/1 72/53/1
f 66/54/5 71/55/5 67/56/5
f 57/57/2 74/58/2 58/59/2
f 64/60/5 11/50/5 10/61/5
f 63/62/5 68/48/5 64/60/5
f 62/63/5 67/56/5 63/62/5
f 61/29/5 66/54/5 62/63/5
f 60/64/5 10/61/5 9/65/5
f 72/53/4 87/66/4 71/67/4
f 58/68/5 63/62/5 59/69/5
f 64/70/4 79/71/4 63/72/4
f 28/73/5 9/65/5 3/2/5
f 27/74/5 60/64/5 28/73/5
f 26/75/5 59/69/5 27/74/5
f 25/6/5 58/68/5 26/75/5
f 52/76/6 24/77/6 23/78/6
f 51/79/6 56/80/6 52/76/6
f 50/81/6 55/82/6 51/79/6
f 49/25/6 54/83/6 50/81/6
f 48/84/6 23/78/6 22/85/6
f 47/86/6 52/76/6 48/84/6
f 46/87/6 51/79/6 47/86/6
f 45/23/6 50/81/6 46/87/6
f 44/88/6 22/85/6 21/89/6
f 43/90/6 48/84/6 44/88/6
f 42/91/6 47/86/6 43/90/6
f 41/20/6 46/87/6 42/91/6
f 32/4/6 21/89/6 8/33/6
f 31/92/6 44/88/6 32/4/6
f 30/93/6 43/90/6 31/92/6
f 29/21/6 42/91/6 30/93/6
f 56/80/6 6/94/6 24/77/6
f 55/82/6 37/95/6 56/80/6
f 54/83/6 38/96/6 55/82/6
f 53/18/6 39/97/6 54/83/6
f 72/98/5 1/11/5 12/49/5
f 71/55/5 33/12/5 72/98/5
f 70/99/5 34/100/5 71/55/5
f 69/15/5 35/101/5 70/99/5
f 6/102/4 36/14/4 5/103/4
f 37/104/4 35/101/4 36/14/4
f 38/105/4 34/100/4 35/101/4
f 39/106/4 33/12/4 34/100/4
f 4/19/2 28/73/2 3/2/2
f 29/21/2 27/74/2 28/73/2
f 30/93/2 26/75/2 27/74/2
f 31/92/2 25/6/2 26/75/2
f 83/107/5 88/52/5 84/108/5
f 81/109/5 86/110/5 82/111/5
f 75/112/5 80/113/5 76/114/5
f 73/115/5 78/116/5 74/58/5
f 65/117/2 82/118/2 66/119/2
f 60/120/1 80/121/1 64/70/1
f 71/67/3 83/122/3 67/123/3
f 63/124/3 75/112/3 59/125/3
f 59/125/2 76/114/2 60/120/2
f 66/126/1 86/110/1 70/127/1
f 67/128/2 84/129/2 68/51/2
f 58/59/1 78/130/1 62/131/1
f 69/132/3 81/133/3 65/117/3
f 61/134/3 73/115/3 57/57/3
f 62/135/4 77/136/4 61/134/4
f 70/127/4 85/137/4 69/132/4
f 16/1/1 4/19/1 3/2/1
f 32/4/2 8/33/2 7/5/2
f 24/7/3 6/138/3 5/8/3
f 40/10/4 2/139/4 1/11/4
f 17/13/5 5/103/5 36/14/5
f 13/16/6 2/140/6 40/17/6
f 4/19/6 16/22/6 41/20/6
f 16/22/6 15/24/6 45/23/6
f 15/24/6 14/26/6 49/25/6
f 14/26/6 13/16/6 53/18/6
f 7/5/5 20/28/5 57/27/5
f 20/28/5 19/30/5 61/29/5
f 19/30/5 18/32/5 65/31/5
f 18/32/5 17/13/5 69/15/5
f 8/33/3 21/35/3 20/34/3
f 21/35/3 22/37/3 19/36/3
f 22/37/3 23/39/3 18/38/3
f 23/39/3 24/7/3 17/9/3
f 2/40/1 13/43/1 12/41/1
f 13/43/1 14/45/1 11/44/1
f 14/45/1 15/47/1 10/46/1
f 15/47/1 16/1/1 9/3/1
f 68/48/5 72/98/5 12/49/5
f 68/51/1 84/129/1 88/52/1
f 66/54/5 70/99/5 71/55/5
f 57/57/2 73/115/2 74/58/2
f 64/60/5 68/48/5 11/50/5
f 63/62/5 67/56/5 68/48/5
f 62/63/5 66/54/5 67/56/5
f 61/29/5 65/31/5 66/54/5
f 60/64/5 64/60/5 10/61/5
f 72/53/4 88/52/4 87/66/4
f 58/68/5 62/63/5 63/62/5
f 64/70/4 80/121/4 79/71/4
f 28/73/5 60/64/5 9/65/5
f 27/74/5 59/69/5 60/64/5
f 26/75/5 58/68/5 59/69/5
f 25/6/5 57/27/5 58/68/5
f 52/76/6 56/80/6 24/77/6
f 51/79/6 55/82/6 56/80/6
f 50/81/6 54/83/6 55/82/6
f 49/25/6 53/18/6 54/83/6
f 48/84/6 52/76/6 23/78/6
f 47/86/6 51/79/6 52/76/6
f 46/87/6 50/81/6 51/79/6
f 45/23/6 49/25/6 50/81/6
f 44/88/6 48/84/6 22/85/6
f 43/90/6 47/86/6 48/84/6
f 42/91/6 46/87/6 47/86/6
f 41/20/6 45/23/6 46/87/6
f 32/4/6 44/88/6 21/89/6
f 31/92/6 43/90/6 44/88/6
f 30/93/6 42/91/6 43/90/6
f 29/21/6 41/20/6 42/91/6
f 56/80/6 37/95/6 6/94/6
f 55/82/6 38/96/6 37/95/6
f 54/83/6 39/97/6 38/96/6
f 53/18/6 40/17/6 39/97/6
f 72/98/5 33/12/5 1/11/5
f 71/55/5 34/100/5 33/12/5
f 70/99/5 35/101/5 34/100/5
f 69/15/5 36/14/5 35/101/5
f 6/102/4 37/104/4 36/14/4
f 37/104/4 38/105/4 35/101/4
f 38/105/4 39/106/4 34/100/4
f 39/106/4 40/10/4 33/12/4
f 4/19/2 29/21/2 28/73/2
f 29/21/2 30/93/2 27/74/2
f 30/93/2 31/92/2 26/75/2
f 31/92/2 32/4/2 25/6/2
f 83/107/5 87/66/5 88/52/5
f 81/109/5 85/137/5 86/110/5
f 75/112/5 79/141/5 80/113/5
f 73/115/5 77/142/5 78/116/5
f 65/117/2 81/133/2 82/118/2
f 60/120/1 76/114/1 80/121/1
f 71/67/3 87/66/3 83/122/3
f 63/124/3 79/143/3 75/112/3
f 59/125/2 75/112/2 76/114/2
f 66/126/1 82/144/1 86/110/1
f 67/128/2 83/145/2 84/129/2
f 58/59/1 74/58/1 78/130/1
f 69/132/3 85/137/3 81/133/3
f 61/134/3 77/136/3 73/115/3
f 62/135/4 78/146/4 77/136/4
f 70/127/4 86/110/4 85/137/4
